<mxfile host="app.diagrams.net" modified="2023-04-23T09:10:01.280Z" agent="Mozilla/5.0 (Macintosh; Intel Mac OS X 10_15_7) AppleWebKit/537.36 (KHTML, like Gecko) Chrome/112.0.0.0 Safari/537.36" etag="wn7iCLf1TQo6QCF-uDod" version="21.2.1" type="github">
  <diagram id="prtHgNgQTEPvFCAcTncT" name="Page-1">
    <mxGraphModel dx="1987" dy="1001" grid="1" gridSize="10" guides="1" tooltips="1" connect="1" arrows="1" fold="1" page="1" pageScale="1" pageWidth="1600" pageHeight="1200" math="0" shadow="0">
      <root>
        <mxCell id="0" />
        <mxCell id="1" parent="0" />
        <mxCell id="YEOChQa1RnBzinkiaHxm-1" value="View No Code" style="swimlane;childLayout=stackLayout;resizeParent=1;resizeParentMax=0;horizontal=0;startSize=20;horizontalStack=0;html=1;flipH=0;flipV=0;direction=east;" vertex="1" parent="1">
          <mxGeometry x="50" y="610" width="1550" height="1020" as="geometry" />
        </mxCell>
        <mxCell id="YEOChQa1RnBzinkiaHxm-2" value="用户侧" style="swimlane;startSize=20;horizontal=0;html=1;" vertex="1" parent="YEOChQa1RnBzinkiaHxm-1">
          <mxGeometry x="20" width="1530" height="120" as="geometry" />
        </mxCell>
        <mxCell id="YEOChQa1RnBzinkiaHxm-11" value="" style="edgeStyle=orthogonalEdgeStyle;rounded=0;orthogonalLoop=1;jettySize=auto;html=1;" edge="1" parent="YEOChQa1RnBzinkiaHxm-2" target="YEOChQa1RnBzinkiaHxm-10">
          <mxGeometry relative="1" as="geometry">
            <mxPoint x="90" y="60" as="sourcePoint" />
          </mxGeometry>
        </mxCell>
        <mxCell id="YEOChQa1RnBzinkiaHxm-13" value="" style="edgeStyle=orthogonalEdgeStyle;rounded=0;orthogonalLoop=1;jettySize=auto;html=1;" edge="1" parent="YEOChQa1RnBzinkiaHxm-2" source="YEOChQa1RnBzinkiaHxm-10" target="YEOChQa1RnBzinkiaHxm-12">
          <mxGeometry relative="1" as="geometry" />
        </mxCell>
        <mxCell id="YEOChQa1RnBzinkiaHxm-10" value="选择数据源" style="rounded=0;whiteSpace=wrap;html=1;fillColor=#dae8fc;strokeColor=#6c8ebf;" vertex="1" parent="YEOChQa1RnBzinkiaHxm-2">
          <mxGeometry x="140" y="30" width="120" height="60" as="geometry" />
        </mxCell>
        <mxCell id="YEOChQa1RnBzinkiaHxm-15" value="" style="edgeStyle=orthogonalEdgeStyle;rounded=0;orthogonalLoop=1;jettySize=auto;html=1;" edge="1" parent="YEOChQa1RnBzinkiaHxm-2" source="YEOChQa1RnBzinkiaHxm-12" target="YEOChQa1RnBzinkiaHxm-14">
          <mxGeometry relative="1" as="geometry" />
        </mxCell>
        <mxCell id="YEOChQa1RnBzinkiaHxm-12" value="配置器" style="rounded=0;whiteSpace=wrap;html=1;fillColor=#dae8fc;strokeColor=#6c8ebf;" vertex="1" parent="YEOChQa1RnBzinkiaHxm-2">
          <mxGeometry x="280" y="30" width="120" height="60" as="geometry" />
        </mxCell>
        <mxCell id="YEOChQa1RnBzinkiaHxm-29" value="" style="edgeStyle=orthogonalEdgeStyle;rounded=0;orthogonalLoop=1;jettySize=auto;html=1;" edge="1" parent="YEOChQa1RnBzinkiaHxm-2" source="YEOChQa1RnBzinkiaHxm-14" target="YEOChQa1RnBzinkiaHxm-28">
          <mxGeometry relative="1" as="geometry" />
        </mxCell>
        <mxCell id="YEOChQa1RnBzinkiaHxm-14" value="参数配置" style="rounded=0;whiteSpace=wrap;html=1;fillColor=#dae8fc;strokeColor=#6c8ebf;" vertex="1" parent="YEOChQa1RnBzinkiaHxm-2">
          <mxGeometry x="430" y="30" width="120" height="60" as="geometry" />
        </mxCell>
        <mxCell id="YEOChQa1RnBzinkiaHxm-28" value="查询验证" style="rounded=0;whiteSpace=wrap;html=1;fillColor=#dae8fc;strokeColor=#6c8ebf;" vertex="1" parent="YEOChQa1RnBzinkiaHxm-2">
          <mxGeometry x="580" y="30" width="120" height="60" as="geometry" />
        </mxCell>
        <mxCell id="YEOChQa1RnBzinkiaHxm-44" value="结束" style="rounded=1;whiteSpace=wrap;html=1;fillColor=#d5e8d4;strokeColor=#82b366;" vertex="1" parent="YEOChQa1RnBzinkiaHxm-2">
          <mxGeometry x="1390" y="30" width="120" height="60" as="geometry" />
        </mxCell>
        <mxCell id="YEOChQa1RnBzinkiaHxm-54" value="" style="edgeStyle=orthogonalEdgeStyle;rounded=0;orthogonalLoop=1;jettySize=auto;html=1;" edge="1" parent="YEOChQa1RnBzinkiaHxm-2" source="YEOChQa1RnBzinkiaHxm-49" target="YEOChQa1RnBzinkiaHxm-53">
          <mxGeometry relative="1" as="geometry" />
        </mxCell>
        <mxCell id="YEOChQa1RnBzinkiaHxm-49" value="查询结果展示" style="rounded=0;whiteSpace=wrap;html=1;fillColor=#dae8fc;strokeColor=#6c8ebf;" vertex="1" parent="YEOChQa1RnBzinkiaHxm-2">
          <mxGeometry x="1060" y="30" width="120" height="60" as="geometry" />
        </mxCell>
        <mxCell id="YEOChQa1RnBzinkiaHxm-55" value="" style="edgeStyle=orthogonalEdgeStyle;rounded=0;orthogonalLoop=1;jettySize=auto;html=1;" edge="1" parent="YEOChQa1RnBzinkiaHxm-2" source="YEOChQa1RnBzinkiaHxm-53" target="YEOChQa1RnBzinkiaHxm-44">
          <mxGeometry relative="1" as="geometry" />
        </mxCell>
        <mxCell id="YEOChQa1RnBzinkiaHxm-53" value="保存View" style="rounded=0;whiteSpace=wrap;html=1;fillColor=#dae8fc;strokeColor=#6c8ebf;" vertex="1" parent="YEOChQa1RnBzinkiaHxm-2">
          <mxGeometry x="1230" y="30" width="120" height="60" as="geometry" />
        </mxCell>
        <mxCell id="YEOChQa1RnBzinkiaHxm-57" value="开始" style="rounded=1;whiteSpace=wrap;html=1;fillColor=#d5e8d4;strokeColor=#82b366;" vertex="1" parent="YEOChQa1RnBzinkiaHxm-2">
          <mxGeometry x="30" y="30" width="90" height="60" as="geometry" />
        </mxCell>
        <mxCell id="YEOChQa1RnBzinkiaHxm-5" value="view-core" style="swimlane;startSize=20;horizontal=0;html=1;" vertex="1" parent="YEOChQa1RnBzinkiaHxm-1">
          <mxGeometry x="20" y="120" width="1530" height="120" as="geometry" />
        </mxCell>
        <mxCell id="YEOChQa1RnBzinkiaHxm-40" value="" style="edgeStyle=orthogonalEdgeStyle;rounded=0;orthogonalLoop=1;jettySize=auto;html=1;" edge="1" parent="YEOChQa1RnBzinkiaHxm-5" source="YEOChQa1RnBzinkiaHxm-33" target="YEOChQa1RnBzinkiaHxm-39">
          <mxGeometry relative="1" as="geometry" />
        </mxCell>
        <mxCell id="YEOChQa1RnBzinkiaHxm-33" value="数据查询" style="rounded=0;whiteSpace=wrap;html=1;fillColor=#dae8fc;strokeColor=#6c8ebf;" vertex="1" parent="YEOChQa1RnBzinkiaHxm-5">
          <mxGeometry x="730" y="30" width="120" height="60" as="geometry" />
        </mxCell>
        <mxCell id="YEOChQa1RnBzinkiaHxm-39" value="查询结果" style="rounded=0;whiteSpace=wrap;html=1;fillColor=#dae8fc;strokeColor=#6c8ebf;" vertex="1" parent="YEOChQa1RnBzinkiaHxm-5">
          <mxGeometry x="900" y="30" width="120" height="60" as="geometry" />
        </mxCell>
        <mxCell id="YEOChQa1RnBzinkiaHxm-6" value="view-types&lt;br&gt;" style="swimlane;startSize=20;horizontal=0;html=1;" vertex="1" parent="YEOChQa1RnBzinkiaHxm-1">
          <mxGeometry x="20" y="240" width="1530" height="120" as="geometry" />
        </mxCell>
        <mxCell id="YEOChQa1RnBzinkiaHxm-20" value="类型定义" style="rounded=0;whiteSpace=wrap;html=1;fillColor=#dae8fc;strokeColor=#6c8ebf;" vertex="1" parent="YEOChQa1RnBzinkiaHxm-6">
          <mxGeometry x="130" y="20" width="120" height="60" as="geometry" />
        </mxCell>
        <mxCell id="YEOChQa1RnBzinkiaHxm-3" value="view-schema&lt;br&gt;" style="swimlane;startSize=20;horizontal=0;html=1;" vertex="1" parent="YEOChQa1RnBzinkiaHxm-1">
          <mxGeometry x="20" y="360" width="1530" height="120" as="geometry" />
        </mxCell>
        <mxCell id="YEOChQa1RnBzinkiaHxm-21" value="JsonSchema" style="rounded=0;whiteSpace=wrap;html=1;fillColor=#dae8fc;strokeColor=#6c8ebf;" vertex="1" parent="YEOChQa1RnBzinkiaHxm-3">
          <mxGeometry x="130" y="40" width="120" height="60" as="geometry" />
        </mxCell>
        <mxCell id="YEOChQa1RnBzinkiaHxm-22" value="自动生成" style="edgeStyle=orthogonalEdgeStyle;rounded=0;orthogonalLoop=1;jettySize=auto;html=1;exitX=0.5;exitY=1;exitDx=0;exitDy=0;" edge="1" parent="YEOChQa1RnBzinkiaHxm-1" source="YEOChQa1RnBzinkiaHxm-20" target="YEOChQa1RnBzinkiaHxm-21">
          <mxGeometry relative="1" as="geometry">
            <mxPoint x="190" y="320" as="sourcePoint" />
          </mxGeometry>
        </mxCell>
        <mxCell id="YEOChQa1RnBzinkiaHxm-16" value="view-validate" style="swimlane;startSize=20;horizontal=0;html=1;" vertex="1" parent="YEOChQa1RnBzinkiaHxm-1">
          <mxGeometry x="20" y="480" width="1530" height="180" as="geometry">
            <mxRectangle x="20" y="240" width="460" height="30" as="alternateBounds" />
          </mxGeometry>
        </mxCell>
        <mxCell id="YEOChQa1RnBzinkiaHxm-18" value="校验参数" style="rhombus;whiteSpace=wrap;html=1;fillColor=#fff2cc;strokeColor=#d6b656;" vertex="1" parent="YEOChQa1RnBzinkiaHxm-16">
          <mxGeometry x="550" y="45" width="180" height="90" as="geometry" />
        </mxCell>
        <mxCell id="YEOChQa1RnBzinkiaHxm-34" style="edgeStyle=orthogonalEdgeStyle;rounded=0;orthogonalLoop=1;jettySize=auto;html=1;exitX=0.5;exitY=1;exitDx=0;exitDy=0;entryX=0.5;entryY=0;entryDx=0;entryDy=0;" edge="1" parent="YEOChQa1RnBzinkiaHxm-1" source="YEOChQa1RnBzinkiaHxm-18" target="YEOChQa1RnBzinkiaHxm-32">
          <mxGeometry relative="1" as="geometry" />
        </mxCell>
        <mxCell id="YEOChQa1RnBzinkiaHxm-35" value="成功" style="edgeLabel;html=1;align=center;verticalAlign=middle;resizable=0;points=[];" vertex="1" connectable="0" parent="YEOChQa1RnBzinkiaHxm-34">
          <mxGeometry x="-0.4095" y="1" relative="1" as="geometry">
            <mxPoint as="offset" />
          </mxGeometry>
        </mxCell>
        <mxCell id="YEOChQa1RnBzinkiaHxm-36" style="edgeStyle=orthogonalEdgeStyle;rounded=0;orthogonalLoop=1;jettySize=auto;html=1;exitX=1;exitY=0.5;exitDx=0;exitDy=0;entryX=0.5;entryY=1;entryDx=0;entryDy=0;" edge="1" parent="YEOChQa1RnBzinkiaHxm-1" source="YEOChQa1RnBzinkiaHxm-32" target="YEOChQa1RnBzinkiaHxm-33">
          <mxGeometry relative="1" as="geometry" />
        </mxCell>
        <mxCell id="YEOChQa1RnBzinkiaHxm-4" value="view-transform&lt;br&gt;" style="swimlane;startSize=20;horizontal=0;html=1;" vertex="1" parent="YEOChQa1RnBzinkiaHxm-1">
          <mxGeometry x="20" y="660" width="1530" height="180" as="geometry">
            <mxRectangle x="20" y="240" width="460" height="30" as="alternateBounds" />
          </mxGeometry>
        </mxCell>
        <mxCell id="YEOChQa1RnBzinkiaHxm-32" value="查询数据转换" style="rounded=0;whiteSpace=wrap;html=1;fillColor=#dae8fc;strokeColor=#6c8ebf;" vertex="1" parent="YEOChQa1RnBzinkiaHxm-4">
          <mxGeometry x="580" y="60" width="120" height="60" as="geometry" />
        </mxCell>
        <mxCell id="YEOChQa1RnBzinkiaHxm-7" value="view-renderer" style="swimlane;startSize=20;horizontal=0;html=1;" vertex="1" parent="YEOChQa1RnBzinkiaHxm-1">
          <mxGeometry x="20" y="840" width="1530" height="180" as="geometry">
            <mxRectangle x="20" y="240" width="460" height="30" as="alternateBounds" />
          </mxGeometry>
        </mxCell>
        <mxCell id="YEOChQa1RnBzinkiaHxm-45" value="JSON Schema渲染器" style="rounded=0;whiteSpace=wrap;html=1;fillColor=#dae8fc;strokeColor=#6c8ebf;" vertex="1" parent="YEOChQa1RnBzinkiaHxm-7">
          <mxGeometry x="130" y="60" width="120" height="60" as="geometry" />
        </mxCell>
        <mxCell id="YEOChQa1RnBzinkiaHxm-46" value="查询结果渲染器" style="rounded=0;whiteSpace=wrap;html=1;fillColor=#dae8fc;strokeColor=#6c8ebf;" vertex="1" parent="YEOChQa1RnBzinkiaHxm-7">
          <mxGeometry x="1060" y="60" width="120" height="60" as="geometry" />
        </mxCell>
        <mxCell id="YEOChQa1RnBzinkiaHxm-30" style="edgeStyle=orthogonalEdgeStyle;rounded=0;orthogonalLoop=1;jettySize=auto;html=1;exitX=0.5;exitY=1;exitDx=0;exitDy=0;" edge="1" parent="YEOChQa1RnBzinkiaHxm-1" source="YEOChQa1RnBzinkiaHxm-28">
          <mxGeometry relative="1" as="geometry">
            <mxPoint x="660" y="530" as="targetPoint" />
          </mxGeometry>
        </mxCell>
        <mxCell id="YEOChQa1RnBzinkiaHxm-31" value="查询参数" style="edgeLabel;html=1;align=center;verticalAlign=middle;resizable=0;points=[];" vertex="1" connectable="0" parent="YEOChQa1RnBzinkiaHxm-30">
          <mxGeometry x="-0.1156" y="1" relative="1" as="geometry">
            <mxPoint as="offset" />
          </mxGeometry>
        </mxCell>
        <mxCell id="YEOChQa1RnBzinkiaHxm-41" value="" style="endArrow=none;dashed=1;html=1;dashPattern=1 3;strokeWidth=2;rounded=0;exitX=0.5;exitY=1;exitDx=0;exitDy=0;entryX=0;entryY=0.5;entryDx=0;entryDy=0;" edge="1" parent="YEOChQa1RnBzinkiaHxm-1" source="YEOChQa1RnBzinkiaHxm-21" target="YEOChQa1RnBzinkiaHxm-18">
          <mxGeometry width="50" height="50" relative="1" as="geometry">
            <mxPoint x="840" y="450" as="sourcePoint" />
            <mxPoint x="890" y="400" as="targetPoint" />
            <Array as="points">
              <mxPoint x="210" y="570" />
            </Array>
          </mxGeometry>
        </mxCell>
        <mxCell id="YEOChQa1RnBzinkiaHxm-27" value="&lt;font color=&quot;#fa0000&quot;&gt;失败&lt;/font&gt;" style="edgeStyle=orthogonalEdgeStyle;rounded=0;orthogonalLoop=1;jettySize=auto;html=1;exitX=1;exitY=0.5;exitDx=0;exitDy=0;entryX=0.5;entryY=1;entryDx=0;entryDy=0;fillColor=#f8cecc;strokeColor=#333333;strokeWidth=1;" edge="1" parent="YEOChQa1RnBzinkiaHxm-1" source="YEOChQa1RnBzinkiaHxm-18" target="YEOChQa1RnBzinkiaHxm-44">
          <mxGeometry relative="1" as="geometry">
            <mxPoint x="810" y="570" as="targetPoint" />
          </mxGeometry>
        </mxCell>
        <mxCell id="YEOChQa1RnBzinkiaHxm-48" style="edgeStyle=orthogonalEdgeStyle;rounded=0;orthogonalLoop=1;jettySize=auto;html=1;exitX=1;exitY=0.5;exitDx=0;exitDy=0;entryX=0.5;entryY=1;entryDx=0;entryDy=0;" edge="1" parent="YEOChQa1RnBzinkiaHxm-1" source="YEOChQa1RnBzinkiaHxm-45" target="YEOChQa1RnBzinkiaHxm-12">
          <mxGeometry relative="1" as="geometry" />
        </mxCell>
        <mxCell id="YEOChQa1RnBzinkiaHxm-50" style="edgeStyle=orthogonalEdgeStyle;rounded=0;orthogonalLoop=1;jettySize=auto;html=1;exitX=0.5;exitY=0;exitDx=0;exitDy=0;" edge="1" parent="YEOChQa1RnBzinkiaHxm-1" source="YEOChQa1RnBzinkiaHxm-46" target="YEOChQa1RnBzinkiaHxm-49">
          <mxGeometry relative="1" as="geometry" />
        </mxCell>
        <mxCell id="YEOChQa1RnBzinkiaHxm-52" style="edgeStyle=orthogonalEdgeStyle;rounded=0;orthogonalLoop=1;jettySize=auto;html=1;exitX=1;exitY=0.5;exitDx=0;exitDy=0;entryX=0;entryY=0.5;entryDx=0;entryDy=0;" edge="1" parent="YEOChQa1RnBzinkiaHxm-1" source="YEOChQa1RnBzinkiaHxm-39" target="YEOChQa1RnBzinkiaHxm-49">
          <mxGeometry relative="1" as="geometry" />
        </mxCell>
        <mxCell id="YEOChQa1RnBzinkiaHxm-47" value="" style="endArrow=none;dashed=1;html=1;dashPattern=1 3;strokeWidth=2;rounded=0;entryX=0.5;entryY=1;entryDx=0;entryDy=0;exitX=0.5;exitY=0;exitDx=0;exitDy=0;" edge="1" parent="YEOChQa1RnBzinkiaHxm-1" source="YEOChQa1RnBzinkiaHxm-45" target="YEOChQa1RnBzinkiaHxm-21">
          <mxGeometry width="50" height="50" relative="1" as="geometry">
            <mxPoint x="180" y="890" as="sourcePoint" />
            <mxPoint x="180" y="540" as="targetPoint" />
          </mxGeometry>
        </mxCell>
      </root>
    </mxGraphModel>
  </diagram>
</mxfile>
